<svg id="Layer_1" data-name="Layer 1" xmlns="http://www.w3.org/2000/svg" width="199" height="80" viewBox="0 0 199 80"><defs><style>.cls-1{fill-rule:evenodd}</style></defs><title>brand-tifway</title><path class="cls-1" d="M168.17 66c-.33 0-.5-.4-.5-1.21V59c0-.8.14-1.2.43-1.2h.42c2.92 0 5-.37 6.25-1.1s2.16-2.24 2.73-4.51a.63.63 0 0 0 0-.57l-11.38-34.87a1 1 0 0 1-.07-.43.83.83 0 0 1 .28-.67 1.13 1.13 0 0 1 .78-.25h8.12a1.34 1.34 0 0 1 1.35 1l5.79 21.15c0 .19.14.29.28.29s.24-.1.29-.29l5.51-21.08a1.22 1.22 0 0 1 1.34-1.06h8.13a1.07 1.07 0 0 1 .92.39 1 1 0 0 1 .07 1l-12.09 36.43a31.38 31.38 0 0 1-3.6 7.77 10.58 10.58 0 0 1-5.16 3.79 28.5 28.5 0 0 1-9.4 1.21zm-21.82-21a8.18 8.18 0 0 0 5.16-1.63 5.07 5.07 0 0 0 2.12-4.19v-2.49a.38.38 0 0 0-.43-.43h-5a9.09 9.09 0 0 0-5 1.21 3.85 3.85 0 0 0-1.84 3.41 3.64 3.64 0 0 0 1.38 3 5.62 5.62 0 0 0 3.61 1.12zm1.41-30.16a19.93 19.93 0 0 1 8.2 1.6 13.54 13.54 0 0 1 5.62 4.36 10.29 10.29 0 0 1 2 6.18v23.7a1.06 1.06 0 0 1-1.2 1.21h-7.56a1.06 1.06 0 0 1-1.2-1.21V49c0-.19 0-.3-.14-.32s-.21 0-.36.18q-3.24 3.62-9.68 3.62a13.44 13.44 0 0 1-8.76-2.7c-2.22-1.8-3.32-4.45-3.32-8a10.2 10.2 0 0 1 3.81-8.48q3.82-3 10.89-3h7.13a.37.37 0 0 0 .43-.42v-1.49a4.69 4.69 0 0 0-1.45-3.66 6.09 6.09 0 0 0-4.2-1.31 7.65 7.65 0 0 0-3.5.71 3.71 3.71 0 0 0-1.88 2 1.33 1.33 0 0 1-1.41.92l-7.84-1a1.86 1.86 0 0 1-.89-.32.69.69 0 0 1-.25-.68 9.51 9.51 0 0 1 2.44-5.25 13.8 13.8 0 0 1 5.52-3.65 20.92 20.92 0 0 1 7.6-1.32zM91.32 51.88a1.34 1.34 0 0 1-1.35-1L80 16.75a1 1 0 0 1-.07-.43c0-.61.35-.92 1.06-.92h7.77a1.21 1.21 0 0 1 1.34 1.06l4.88 21c.05.19.14.28.28.28s.24-.09.29-.28l5.23-21a1.22 1.22 0 0 1 1.34-1.06h6.93a1.22 1.22 0 0 1 1.34 1.06l5.37 21.08c0 .19.14.29.28.29s.24-.1.28-.29l5.38-21.08a1.21 1.21 0 0 1 1.34-1.06l7.77.07a1 1 0 0 1 .89.39 1.19 1.19 0 0 1 .1 1l-10.1 34.06a1.34 1.34 0 0 1-1.35 1h-7.91a1.32 1.32 0 0 1-1.34-1l-5.3-18.63c-.09-.19-.2-.28-.31-.28s-.2.09-.25.28l-4.67 18.52a1.22 1.22 0 0 1-1.34 1.07zM77.06 15.33a1.06 1.06 0 0 1 1.2 1.21v6a1.06 1.06 0 0 1-1.2 1.2h-6.43a.38.38 0 0 0-.42.43v26.5A1.06 1.06 0 0 1 69 51.88h-7.56a1.06 1.06 0 0 1-1.2-1.21V24.2a.38.38 0 0 0-.42-.43h-3.75a1.06 1.06 0 0 1-1.2-1.2v-6a1.06 1.06 0 0 1 1.2-1.21h3.75a.37.37 0 0 0 .42-.43v-1.52a14.5 14.5 0 0 1 1.34-6.85 7.48 7.48 0 0 1 4.35-3.47 24.51 24.51 0 0 1 8.3-.89h2.34a1.06 1.06 0 0 1 1.2 1.21v5a1.06 1.06 0 0 1-1.2 1.2h-2a5 5 0 0 0-3.43 1c-.64.64-1 1.81-1 3.51v.71a.37.37 0 0 0 .42.43zM42.24 51.88A1.06 1.06 0 0 1 41 50.67V16.61a1.06 1.06 0 0 1 1.2-1.21h7.6a1.06 1.06 0 0 1 1.2 1.21v34.06a1.06 1.06 0 0 1-1.2 1.21zm3.75-40a6 6 0 0 1-4.38-1.67A5.72 5.72 0 0 1 39.91 6a5.72 5.72 0 0 1 1.7-4.29A6 6 0 0 1 46 0a6 6 0 0 1 4.4 1.63A5.79 5.79 0 0 1 52.06 6a5.79 5.79 0 0 1-1.66 4.33 6 6 0 0 1-4.4 1.59zM36.11 2.2a1.07 1.07 0 0 1 1.21 1.21v6.24a1.07 1.07 0 0 1-1.21 1.21H23.89a.37.37 0 0 0-.43.42v39.39a1.06 1.06 0 0 1-1.2 1.21H14.7a1.06 1.06 0 0 1-1.2-1.21V11.28a.37.37 0 0 0-.43-.42H1.2A1.06 1.06 0 0 1 0 9.65V3.41A1.06 1.06 0 0 1 1.2 2.2zm119.1 74.86a3.22 3.22 0 0 0 2-.64 2 2 0 0 0 .84-1.65v-1a.15.15 0 0 0-.17-.17h-2a3.52 3.52 0 0 0-2 .48 1.49 1.49 0 0 0-.73 1.34 1.43 1.43 0 0 0 .55 1.19 2.22 2.22 0 0 0 1.51.45zm.56-11.89a7.84 7.84 0 0 1 3.22.63 5.4 5.4 0 0 1 2.22 1.72A4 4 0 0 1 162 70v9.3a.42.42 0 0 1-.47.48h-3a.42.42 0 0 1-.47-.48v-.67c0-.08 0-.12-.06-.13s-.08 0-.14.07a4.85 4.85 0 0 1-3.79 1.43 5.29 5.29 0 0 1-3.45-1.06 3.82 3.82 0 0 1-1.31-3.14 4 4 0 0 1 1.5-3.34 6.78 6.78 0 0 1 4.29-1.19h2.81a.15.15 0 0 0 .17-.17v-.58a1.83 1.83 0 0 0-.57-1.44 2.38 2.38 0 0 0-1.66-.52 3 3 0 0 0-1.38.28 1.51 1.51 0 0 0-.74.78.53.53 0 0 1-.55.37l-3.09-.4a.66.66 0 0 1-.35-.12.3.3 0 0 1-.1-.27 3.87 3.87 0 0 1 1-2.07 5.58 5.58 0 0 1 2.17-1.44 8.43 8.43 0 0 1 2.96-.52zm-12.93 10.19a7.23 7.23 0 0 0 0-5.65 2.1 2.1 0 0 0-1.84-1.09 2.17 2.17 0 0 0-2 1.06 6.72 6.72 0 0 0-.08 5.68 2.17 2.17 0 0 0 2 1.2 2.06 2.06 0 0 0 1.92-1.2zm.59-14.69a.41.41 0 0 1 .47-.47h3a.41.41 0 0 1 .47.47V79.3a.42.42 0 0 1-.47.48h-3a.42.42 0 0 1-.47-.48v-.75c0-.08 0-.12-.07-.13s-.09 0-.13.07a3.74 3.74 0 0 1-3.17 1.51 5.34 5.34 0 0 1-3.35-1.13 5.76 5.76 0 0 1-2-3 10.15 10.15 0 0 1-.47-3.36 10 10 0 0 1 .52-3.47 5.86 5.86 0 0 1 2-2.85 5.32 5.32 0 0 1 3.3-1.06 3.83 3.83 0 0 1 3.17 1.37s.08.07.13 0a.14.14 0 0 0 .07-.14zm-15.18 5.2a.42.42 0 0 1 .47-.47h3a.41.41 0 0 1 .47.47V79.3a.42.42 0 0 1-.47.48h-3a.42.42 0 0 1-.47-.48v-.75c0-.08 0-.12-.07-.13s-.09 0-.13.07a3.94 3.94 0 0 1-3.42 1.51 4.9 4.9 0 0 1-3.48-1.28 4.73 4.73 0 0 1-1.36-3.61v-9.24a.42.42 0 0 1 .47-.47h2.95a.42.42 0 0 1 .48.47v8.23a2.71 2.71 0 0 0 .59 1.82 2.09 2.09 0 0 0 1.66.7 2.21 2.21 0 0 0 1.56-.62 2.45 2.45 0 0 0 .75-1.49zm-15.46-.7a4.41 4.41 0 0 1 3.4 1.32 5.25 5.25 0 0 1 1.22 3.69v9.12a.42.42 0 0 1-.47.48h-3a.42.42 0 0 1-.47-.48v-8.25a2.67 2.67 0 0 0-.59-1.82 1.94 1.94 0 0 0-1.55-.67 2 2 0 0 0-1.59.67 2.56 2.56 0 0 0-.61 1.79v8.28a.42.42 0 0 1-.48.48h-3a.42.42 0 0 1-.47-.48v-8.25a2.61 2.61 0 0 0-.61-1.81 2.06 2.06 0 0 0-1.59-.68 2.19 2.19 0 0 0-1.49.53 2.34 2.34 0 0 0-.71 1.48v8.73a.42.42 0 0 1-.47.48h-3a.42.42 0 0 1-.47-.48V65.87a.42.42 0 0 1 .47-.47h3a.41.41 0 0 1 .47.47v.9a.15.15 0 0 0 .07.14s.09 0 .13-.08a4 4 0 0 1 3.51-1.66 5 5 0 0 1 2.42.58 3.9 3.9 0 0 1 1.58 1.66c0 .08 0 .11.1.1a.2.2 0 0 0 .13-.1 4.28 4.28 0 0 1 1.67-1.68 4.81 4.81 0 0 1 2.4-.56zm-19.13 0a2.87 2.87 0 0 1 1.48.34.49.49 0 0 1 .25.59l-.53 2.93c0 .17-.07.27-.15.31a.69.69 0 0 1-.41 0 3.48 3.48 0 0 0-.8-.11h-.64a2.74 2.74 0 0 0-1.7.75 2.29 2.29 0 0 0-.7 1.74v7.5a.42.42 0 0 1-.47.48H87a.42.42 0 0 1-.47-.48V65.87a.42.42 0 0 1 .47-.47h3a.41.41 0 0 1 .47.47v.87c0 .08 0 .12.06.14s.08 0 .14 0a3.45 3.45 0 0 1 2.99-1.68zm-15.9 3.36a2.48 2.48 0 0 0-1.49.43 2.21 2.21 0 0 0-.82 1.22 6.53 6.53 0 0 0-.16.7c0 .11 0 .17.13.17h4.74c.09 0 .13 0 .13-.11a1.93 1.93 0 0 0-.11-.65 2.49 2.49 0 0 0-.86-1.29 2.52 2.52 0 0 0-1.56-.44zm.73 8.11a3.6 3.6 0 0 0 2.81-1.29.47.47 0 0 1 .36-.19.42.42 0 0 1 .3.14l1.59 1.54a.48.48 0 0 1 .17.33.55.55 0 0 1-.11.34 6.51 6.51 0 0 1-2.35 1.8 7.42 7.42 0 0 1-3.14.66 6.72 6.72 0 0 1-4.24-1.31 6.46 6.46 0 0 1-2.27-3.61 10 10 0 0 1-.33-2.6 10.79 10.79 0 0 1 .3-2.75 6 6 0 0 1 2.24-3.32 6.51 6.51 0 0 1 4-1.26 5.82 5.82 0 0 1 4.33 1.62 8.21 8.21 0 0 1 2.07 4.56c.07.61.13 1.29.17 2a.42.42 0 0 1-.48.48h-8.54c-.11 0-.17.05-.17.16a3.89 3.89 0 0 0 .2.87 2.26 2.26 0 0 0 1.1 1.33 4 4 0 0 0 1.99.53zm-16.1-.31a2.9 2.9 0 0 0 2-.65 2.6 2.6 0 0 0 0-3.61 2.9 2.9 0 0 0-2-.66h-3.45a.15.15 0 0 0-.17.17v4.62c0 .11.06.16.17.16zm-3.45-12.75a.15.15 0 0 0-.17.17v4.31c0 .11.06.16.17.16h3.23a3 3 0 0 0 2-.61 2.09 2.09 0 0 0 .72-1.68 2.16 2.16 0 0 0-.72-1.72 3 3 0 0 0-2-.63zm7.49 6c-.06 0-.09 0-.09.1s0 .08.09.12A4.66 4.66 0 0 1 69 74.29a4.8 4.8 0 0 1-1.84 4.1 7.78 7.78 0 0 1-4.81 1.39h-7.03a.42.42 0 0 1-.47-.48V60.67a.41.41 0 0 1 .47-.47h6.85q6.58 0 6.59 5.37a4.07 4.07 0 0 1-2.33 3.97zm-23.85-1.36a4.31 4.31 0 0 0 .06-3.58 2.41 2.41 0 0 0-4.2 0 3.41 3.41 0 0 0-.44 1.77 3.53 3.53 0 0 0 .44 1.84 2.25 2.25 0 0 0 2 1.12 2.13 2.13 0 0 0 2.14-1.15zm3.87-4.47a7.12 7.12 0 0 1 .5 2.74v8.42a4.59 4.59 0 0 1-.79 2.67A5.18 5.18 0 0 1 44 79.37a8 8 0 0 1-3.26.63 7.68 7.68 0 0 1-3.2-.63 5.06 5.06 0 0 1-2.16-1.76 4.58 4.58 0 0 1-.81-2.61v-.64a.42.42 0 0 1 .47-.48h3c.31 0 .47.1.47.28v.31A2.08 2.08 0 0 0 39.1 76a2.16 2.16 0 0 0 1.59.62 2.3 2.3 0 0 0 1.68-.62 2.13 2.13 0 0 0 .63-1.62V71.8c0-.07 0-.12-.06-.14s-.08 0-.14.06a4.63 4.63 0 0 1-3 1 5.84 5.84 0 0 1-3-.77 5.26 5.26 0 0 1-2.08-2.22 6.9 6.9 0 0 1-.67-3.22 7.66 7.66 0 0 1 .53-2.91 5.71 5.71 0 0 1 2.3-2.6 7.39 7.39 0 0 1 7.32 0 5.67 5.67 0 0 1 2.25 2.75zm-18.57-3.44a1.31 1.31 0 0 1 .58-.11h3.15a.41.41 0 0 1 .47.47V79.3a.42.42 0 0 1-.47.48h-3a.42.42 0 0 1-.47-.48V64.06a.17.17 0 0 0-.06-.14.12.12 0 0 0-.14 0l-2.45.5h-.09A.37.37 0 0 1 25 64v-2.15a.51.51 0 0 1 .36-.54zm-3.74 10.93a.42.42 0 0 1 .47.48v2.55a.42.42 0 0 1-.47.47h-1a.15.15 0 0 0-.17.17v4.39a.42.42 0 0 1-.47.48h-3a.42.42 0 0 1-.5-.48v-4.39c0-.11-.05-.17-.16-.17h-8.37a.42.42 0 0 1-.47-.47v-2a1.9 1.9 0 0 1 .11-.59l5-11.1a.61.61 0 0 1 .56-.36h3.17q.42 0 .42.33l-.05.23-4.62 10.27c-.05.13 0 .19.14.19h4.15a.14.14 0 0 0 .16-.16v-3.3a.42.42 0 0 1 .48-.48h3a.42.42 0 0 1 .47.48v3.3c0 .11.05.16.17.16z"/></svg>