<svg id="Layer_1" data-name="Layer 1" xmlns="http://www.w3.org/2000/svg" width="299.13" height="81.38" viewBox="0 0 299.13 81.38"><title>brand-centipede</title><path d="M8.86 51a15.73 15.73 0 0 1-6.56-6.14A17.92 17.92 0 0 1 0 35.71V19.08a17.88 17.88 0 0 1 2.3-9.14 15.54 15.54 0 0 1 6.56-6.12 21.47 21.47 0 0 1 9.86-2.16 22 22 0 0 1 9.76 2.05A15.54 15.54 0 0 1 35 9.54a16.29 16.29 0 0 1 2.34 8.75c0 .43-.39.69-1.15.79l-7.71.5h-.29c-.67 0-1-.12-1-.36v-.43a8.21 8.21 0 0 0-2.34-6.12 8.43 8.43 0 0 0-6.16-2.3 8.52 8.52 0 0 0-6.23 2.3 8.21 8.21 0 0 0-2.34 6.12v17.35a8.1 8.1 0 0 0 2.34 6 8.49 8.49 0 0 0 6.23 2.31 8.4 8.4 0 0 0 6.16-2.31 8.1 8.1 0 0 0 2.34-6 .74.74 0 0 1 .32-.61 1.17 1.17 0 0 1 .9-.18l7.7.36q1.23.15 1.23.36v.36A16.5 16.5 0 0 1 35 45.22a15.69 15.69 0 0 1-6.55 5.9 21.74 21.74 0 0 1-9.76 2.09A21.1 21.1 0 0 1 8.86 51zm57.42-9.67a1.22 1.22 0 0 1 .93-.51 1.09 1.09 0 0 1 .79.36l4.11 4a1.25 1.25 0 0 1 .43.87 1.35 1.35 0 0 1-.29.86 16.39 16.39 0 0 1-6.08 4.65 19.45 19.45 0 0 1-8.1 1.69 17.33 17.33 0 0 1-11-3.39 16.51 16.51 0 0 1-5.87-9.28 25.26 25.26 0 0 1-.86-6.7 27 27 0 0 1 .79-7.06 15.37 15.37 0 0 1 5.79-8.56A16.85 16.85 0 0 1 57.28 15q7 0 11.19 4.17t5.36 11.74c.2 1.58.34 3.33.44 5.25A1.09 1.09 0 0 1 73 37.37H50.94a.38.38 0 0 0-.43.43A10.31 10.31 0 0 0 51 40a5.86 5.86 0 0 0 2.85 3.42A10.39 10.39 0 0 0 59 44.64a9.45 9.45 0 0 0 7.28-3.31zm-13-16.45A5.57 5.57 0 0 0 51.16 28c-.24.91-.39 1.51-.44 1.8s.07.43.36.43h12.24c.24 0 .36-.1.36-.29a5.2 5.2 0 0 0-.28-1.65A6.53 6.53 0 0 0 61.16 25a6.42 6.42 0 0 0-4-1.22 6.36 6.36 0 0 0-3.88 1.1zm53.16-6.3q3.56 3.53 3.56 9.57v23.26a1.08 1.08 0 0 1-1.22 1.22H101a1.08 1.08 0 0 1-1.22-1.22V30.24a6.85 6.85 0 0 0-1.58-4.68 5.39 5.39 0 0 0-4.2-1.8 5.59 5.59 0 0 0-4.32 1.8A6.62 6.62 0 0 0 88 30.24v21.17a1.08 1.08 0 0 1-1.22 1.22h-7.7a1.08 1.08 0 0 1-1.22-1.22V16.85a1.08 1.08 0 0 1 1.22-1.23h7.71A1.08 1.08 0 0 1 88 16.85v2q0 .3.15.36c.09.05.19 0 .28-.14q3-4 8.72-4a12.51 12.51 0 0 1 9.29 3.51zm27.73 5.18h-6.48a.38.38 0 0 0-.43.43V39.1a5.23 5.23 0 0 0 1 3.49 4 4 0 0 0 3.13 1.11h2a1.08 1.08 0 0 1 1.22 1.23v6.19a1.21 1.21 0 0 1-1.22 1.3c-1.83.09-3.15.14-4 .14-4 0-7-.67-8.93-2s-3-3.84-3-7.48V24.19a.38.38 0 0 0-.43-.43h-3.68a1.08 1.08 0 0 1-1.22-1.22v-5.69a1.08 1.08 0 0 1 1.22-1.23H117a.38.38 0 0 0 .43-.43V7.06a1.08 1.08 0 0 1 1.22-1.23H126a1.08 1.08 0 0 1 1.22 1.23v8.13a.38.38 0 0 0 .43.43h6.48a1.09 1.09 0 0 1 1.23 1.23v5.69a1.08 1.08 0 0 1-1.19 1.22zm5.27-13.36a5.82 5.82 0 0 1-1.73-4.35 5.85 5.85 0 0 1 1.73-4.36 6.84 6.84 0 0 1 9 0 5.88 5.88 0 0 1 1.69 4.39 5.89 5.89 0 0 1-1.69 4.39 6.18 6.18 0 0 1-4.5 1.66 6.11 6.11 0 0 1-4.5-1.73zm-.57 41V16.85a1.08 1.08 0 0 1 1.22-1.23h7.7a1.09 1.09 0 0 1 1.21 1.23v34.56a1.08 1.08 0 0 1-1.23 1.22h-7.7a1.08 1.08 0 0 1-1.2-1.22zm49.83-17.13a25.14 25.14 0 0 1-1.37 8.93 15 15 0 0 1-5.22 7.34 13.73 13.73 0 0 1-8.53 2.74 10 10 0 0 1-8.21-3.53c-.09-.14-.2-.19-.32-.14s-.18.17-.18.36V64.8a1.08 1.08 0 0 1-1.22 1.2h-7.71a1.08 1.08 0 0 1-1.22-1.22V16.85a1.08 1.08 0 0 1 1.22-1.23h7.71a1.08 1.08 0 0 1 1.22 1.23v1.94q0 .29.18.33a.32.32 0 0 0 .32-.18 9.72 9.72 0 0 1 8.21-3.89 13.83 13.83 0 0 1 8.68 2.95 14.89 14.89 0 0 1 5.22 7.67 26.38 26.38 0 0 1 1.22 8.6zm-10.65-.21a14.73 14.73 0 0 0-1.52-7.06 5.64 5.64 0 0 0-5.25-3.1 5.39 5.39 0 0 0-4.9 3.1 15 15 0 0 0-1.44 7.13 15.44 15.44 0 0 0 1.51 7.41 5.49 5.49 0 0 0 4.83 2.81 5.6 5.6 0 0 0 5-2.73 14.59 14.59 0 0 0 1.77-7.56zM217 41.33a1.23 1.23 0 0 1 .94-.51 1.09 1.09 0 0 1 .79.36l4.1 4a1.26 1.26 0 0 1 .44.87 1.35 1.35 0 0 1-.29.86 16.42 16.42 0 0 1-6.09 4.65 19.39 19.39 0 0 1-8.1 1.69 17.37 17.37 0 0 1-11-3.39 16.5 16.5 0 0 1-5.86-9.28 25.26 25.26 0 0 1-.87-6.7 27 27 0 0 1 .79-7.06 15.33 15.33 0 0 1 5.8-8.56A16.82 16.82 0 0 1 208 15q7.06 0 11.2 4.17t5.36 11.74c.19 1.58.34 3.33.43 5.25a1.08 1.08 0 0 1-1.22 1.23h-22.1a.38.38 0 0 0-.44.43 10.82 10.82 0 0 0 .47 2.18 5.85 5.85 0 0 0 2.84 3.42 10.43 10.43 0 0 0 5.15 1.19 9.42 9.42 0 0 0 7.31-3.28zm-13-16.45a5.59 5.59 0 0 0-2.16 3.12c-.24.91-.38 1.51-.43 1.8s.07.43.36.43H214c.24 0 .36-.1.36-.29a5.22 5.22 0 0 0-.29-1.65 6.11 6.11 0 0 0-6.26-4.54 6.36 6.36 0 0 0-3.81 1.13zm48.15-22.65h7.7a1.09 1.09 0 0 1 1.23 1.23v47.95a1.08 1.08 0 0 1-1.23 1.22h-7.7a1.08 1.08 0 0 1-1.23-1.22v-1.95c0-.19-.06-.29-.18-.32s-.22 0-.32.18a9.73 9.73 0 0 1-8.21 3.89 13.78 13.78 0 0 1-8.67-2.92 14.85 14.85 0 0 1-5.22-7.67 26 26 0 0 1-1.23-8.62 25.31 25.31 0 0 1 1.37-8.92 15.12 15.12 0 0 1 5.22-7.35 13.81 13.81 0 0 1 8.53-2.73q5.32 0 8.21 3.52c.1.15.2.2.32.15s.18-.17.18-.36V3.46a1.09 1.09 0 0 1 1.23-1.23zm-1.3 31.9a15.13 15.13 0 0 0-1.51-7.42 5.5 5.5 0 0 0-4.82-2.81 5.61 5.61 0 0 0-5 2.74 14.49 14.49 0 0 0-1.73 7.56 14.79 14.79 0 0 0 1.51 7.06 5.64 5.64 0 0 0 5.26 3.09 5.36 5.36 0 0 0 4.89-3.09 15.06 15.06 0 0 0 1.4-7.13zm40.29 7.2a1.22 1.22 0 0 1 .93-.51 1.09 1.09 0 0 1 .79.36l4.11 4a1.25 1.25 0 0 1 .43.87 1.35 1.35 0 0 1-.29.86 16.39 16.39 0 0 1-6.11 4.61 19.45 19.45 0 0 1-8.1 1.69 17.33 17.33 0 0 1-11-3.39 16.51 16.51 0 0 1-5.87-9.28 25.26 25.26 0 0 1-.86-6.7 27 27 0 0 1 .79-7.06 15.37 15.37 0 0 1 5.79-8.56A16.85 16.85 0 0 1 282.14 15q7 0 11.19 4.17t5.37 11.74c.19 1.58.33 3.33.43 5.25a1.09 1.09 0 0 1-1.23 1.23h-22.1a.38.38 0 0 0-.43.43 10.31 10.31 0 0 0 .5 2.23 5.86 5.86 0 0 0 2.85 3.42 10.39 10.39 0 0 0 5.14 1.19 9.44 9.44 0 0 0 7.28-3.33zm-13-16.45A5.57 5.57 0 0 0 276 28c-.24.91-.39 1.51-.44 1.8s.08.43.36.43h12.24c.24 0 .36-.1.36-.29a5.2 5.2 0 0 0-.28-1.65A6.53 6.53 0 0 0 286 25a7.22 7.22 0 0 0-7.88-.1zm-88.05 55.51a7.12 7.12 0 0 1-2.93-2.77 8 8 0 0 1-1-4.11v-7.17a8.08 8.08 0 0 1 1-4.12 7 7 0 0 1 2.93-2.77 10.13 10.13 0 0 1 8.65 0 7.34 7.34 0 0 1 2.92 2.55 6.76 6.76 0 0 1 1 3.67v.06a.48.48 0 0 1-.55.54h-3.42a.75.75 0 0 1-.4-.08c-.1 0-.15-.11-.15-.17v-.23a3.37 3.37 0 0 0-1-2.48 4.13 4.13 0 0 0-5.49.07 3.84 3.84 0 0 0-1 2.8v7.42a3.68 3.68 0 0 0 1.12 2.8 3.94 3.94 0 0 0 2.85 1.07 3.86 3.86 0 0 0 2.66-.88 3.09 3.09 0 0 0 1-2.45v-1.4a.18.18 0 0 0-.19-.2h-3.4a.48.48 0 0 1-.54-.54v-2.58a.48.48 0 0 1 .54-.55h7.49a.49.49 0 0 1 .55.55v4.06a8.44 8.44 0 0 1-1 4.23 6.8 6.8 0 0 1-2.89 2.73 9.53 9.53 0 0 1-4.34.94 9.24 9.24 0 0 1-4.41-.99zm25.61-15.55a.56.56 0 0 1 .29.67l-.61 3.36c0 .19-.08.31-.18.35a.7.7 0 0 1-.46 0 4.09 4.09 0 0 0-.93-.12c-.15 0-.39 0-.74.06a3.14 3.14 0 0 0-1.95.85 2.63 2.63 0 0 0-.8 2v8.57a.48.48 0 0 1-.54.55h-3.43a.48.48 0 0 1-.54-.55V65.22a.48.48 0 0 1 .54-.54h3.43a.48.48 0 0 1 .54.54v1c0 .08 0 .14.07.16s.09 0 .16-.07a4 4 0 0 1 3.45-1.85 3.37 3.37 0 0 1 1.7.38zm12.67.3a6.07 6.07 0 0 1 2.54 2 4.62 4.62 0 0 1 .92 2.79v10.65a.49.49 0 0 1-.55.55h-3.42a.48.48 0 0 1-.55-.55v-.76q0-.13-.06-.15s-.1 0-.16.08a5.59 5.59 0 0 1-4.38 1.63 6.11 6.11 0 0 1-4-1.21 4.33 4.33 0 0 1-1.51-3.59 4.59 4.59 0 0 1 1.8-3.82 7.8 7.8 0 0 1 4.93-1.36h3.23a.17.17 0 0 0 .19-.19v-.67a2.12 2.12 0 0 0-.65-1.65 2.75 2.75 0 0 0-1.91-.59 3.34 3.34 0 0 0-1.58.32 1.67 1.67 0 0 0-.85.89.61.61 0 0 1-.64.42l-3.55-.45a.86.86 0 0 1-.4-.14.3.3 0 0 1-.11-.31 4.19 4.19 0 0 1 1.1-2.36 6.15 6.15 0 0 1 2.5-1.65 9.45 9.45 0 0 1 3.44-.6 9.3 9.3 0 0 1 3.67.72zm-2 12.15a2.28 2.28 0 0 0 1-1.89v-1.12a.17.17 0 0 0-.19-.19h-2.27a4.12 4.12 0 0 0-2.27.54 1.74 1.74 0 0 0-.83 1.54 1.62 1.62 0 0 0 .62 1.36A2.58 2.58 0 0 0 224 78a3.73 3.73 0 0 0 2.35-.71zm11.48 3.46a5.73 5.73 0 0 1-2.46-1.7 3.85 3.85 0 0 1-.86-2.47v-.16a.48.48 0 0 1 .54-.54h3.23c.37 0 .55.07.55.19v.23a1.42 1.42 0 0 0 .76 1.2 3.59 3.59 0 0 0 2 .49 3.4 3.4 0 0 0 1.76-.41 1.26 1.26 0 0 0 .67-1.09.93.93 0 0 0-.58-.87 9.61 9.61 0 0 0-1.89-.6 20.72 20.72 0 0 1-2.33-.74 10 10 0 0 1-3.3-1.73 3.62 3.62 0 0 1-1.21-2.94 4.47 4.47 0 0 1 1.85-3.76 7.9 7.9 0 0 1 4.87-1.39 9.36 9.36 0 0 1 3.6.65 5.56 5.56 0 0 1 2.4 1.84 4.54 4.54 0 0 1 .84 2.69.31.31 0 0 1-.14.27.62.62 0 0 1-.4.12h-3.13c-.37 0-.55-.07-.55-.2v-.19a1.39 1.39 0 0 0-.7-1.18 3.31 3.31 0 0 0-1.89-.48 3.52 3.52 0 0 0-1.75.38 1.19 1.19 0 0 0-.68 1.06 1 1 0 0 0 .65 1 12 12 0 0 0 2.16.67 16.16 16.16 0 0 1 1.79.48 10.26 10.26 0 0 1 3.62 1.73 3.72 3.72 0 0 1 1.31 3.07 4.28 4.28 0 0 1-1.89 3.7 8.63 8.63 0 0 1-5.05 1.32 10.69 10.69 0 0 1-3.79-.64zm16.15 0a5.7 5.7 0 0 1-2.47-1.7 3.91 3.91 0 0 1-.86-2.47v-.16a.48.48 0 0 1 .54-.54h3.23c.37 0 .55.07.55.19v.23a1.41 1.41 0 0 0 .77 1.2 3.53 3.53 0 0 0 1.95.49 3.4 3.4 0 0 0 1.76-.41 1.24 1.24 0 0 0 .67-1.09.93.93 0 0 0-.58-.87 9.69 9.69 0 0 0-1.88-.6 20.36 20.36 0 0 1-2.34-.74 10 10 0 0 1-3.3-1.73 3.62 3.62 0 0 1-1.21-2.94 4.47 4.47 0 0 1 1.85-3.76 7.9 7.9 0 0 1 4.87-1.39 9.36 9.36 0 0 1 3.6.65 5.56 5.56 0 0 1 2.4 1.84 4.55 4.55 0 0 1 .85 2.69.32.32 0 0 1-.15.27.6.6 0 0 1-.4.12h-3.13c-.37 0-.55-.07-.55-.2v-.19a1.39 1.39 0 0 0-.7-1.18 3.31 3.31 0 0 0-1.89-.48 3.48 3.48 0 0 0-1.74.38 1.18 1.18 0 0 0-.69 1.06 1 1 0 0 0 .65 1 12 12 0 0 0 2.16.67 17 17 0 0 1 1.8.48 10.29 10.29 0 0 1 3.61 1.73 3.69 3.69 0 0 1 1.31 3.07 4.29 4.29 0 0 1-1.88 3.7 8.69 8.69 0 0 1-5.06 1.32 10.59 10.59 0 0 1-3.74-.64z"/></svg>