<svg xmlns="http://www.w3.org/2000/svg" xmlns:xlink="http://www.w3.org/1999/xlink" width="327" height="92" viewBox="0 0 327 92"><defs><path id="logo-lawson-a" d="M.539.191H247v32.413H.539z"/></defs><g fill="none" fill-rule="evenodd"><path fill="#FFC90A" d="M91.6 31.593v5.087c.982-.458 1.962-.92 2.942-1.385l.17-.08a30.056 30.056 0 0 0-2.288-2.828l15.166-10.469-11.27 5.25v1.492l-3.391.978c-1.288.38-1.288.38-1.33 1.955M42.867 52.338l.16-.021c2.948-.409 5.832-.916 8.66-1.509l.2-.043c.858-.181 1.71-.37 2.559-.567l.337-.08c.82-.192 1.636-.392 2.448-.598l.295-.076c.863-.221 1.72-.45 2.575-.687l.09-.024c8.257-2.295 16.098-5.274 23.783-8.616v-6.681c0-1.782-.022-2.845-.133-3.192-.172-.198-.515-.447-1.025-.617l-2.887-1.007v-2.784h3.797a30.059 30.059 0 0 0-3.03-1.324l7.413-17.476-10.83 16.436a30.114 30.114 0 0 0-9.086-.769L65.919 0l-1.391 22.086v1.083a29.908 29.908 0 0 0-7.85 2.657L44.813 9.2l8.66 18.483a30.398 30.398 0 0 0-6.361 5.678L29.93 25.977l15.01 10.29a30.052 30.052 0 0 0-3.985 8.955l-16.708 1.591 16.04 1.769a30.015 30.015 0 0 0-.3 4.116l.176-.019c.907-.105 1.807-.218 2.702-.341"/><path fill="#356A20" d="M91.6 36.681v14.505c8.933-3.978 18.364-8.457 28.681-12.88l2.554-6.32c.181-.443.33-.859.5-1.336.264-.74.592-1.663 1.165-3.032l.448-1.09.809-.692h4.237l.834.715 1.065 3.091.721 1.957.51 1.457a311.275 311.275 0 0 1 9.457-3.483l-2.397-.994v-2.743h13.864c34.392-10.376 78.5-16.113 140.531-5.524-106.875-38.07-152.733-7.504-199.867 14.902l-.17.081c-.98.466-1.96.928-2.942 1.386"/><path fill="#356A20" d="M125.91 35.94l.474-.195-.192-.582-.281.777zm-41.937 4.183c-7.685 3.34-15.527 6.316-23.783 8.61l-.09.025c-.854.237-1.712.465-2.575.687l-.296.075c-.811.207-1.627.406-2.447.599l-.338.079c-.847.197-1.7.386-2.557.567l-.201.044c-2.829.592-5.712 1.1-8.66 1.508-.053.008-.107.014-.16.02-.895.124-1.796.238-2.703.342l-.176.019C27.952 54.068 14.829 53.794 0 51.114c32.538 19.89 56.304 14.997 83.973 3.382V40.123z"/><g transform="translate(80 34.377)"><mask id="logo-lawson-b" fill="#fff"><use xlink:href="#logo-lawson-a"/></mask><path fill="#356A20" d="M239.993 29.963h-1.588c.06-.509.158-1.007.247-1.507.17.208.567.216.665-.113l.34-1.131c.277.886.326 1.817.336 2.751zm-2.444-2.578c-.161.844-.27 1.701-.297 2.578h-7.881c0-.02.004-.037-.001-.059-.618-2.846-.801-5.633-.701-8.386.628 2.452 1.232 4.912 1.759 7.395.084.396.679.228.623-.164-.068-.452-.155-.898-.234-1.348.28.413.982.722 1.439.466a.611.611 0 0 0 .224-.225c.018.053.03.109.047.162.227.668 1.309.411 1.115-.292-.07-.255-.147-.504-.218-.756.963-2.48 1.88-4.805 2.936-7.023-.898 2.241-1.575 4.591-1.907 7.224l-.003.009c-.002.035-.011.067-.015.103-.057.474.659.487.804.106.926-2.441 1.89-4.848 3.06-7.138-.31 2.368-.531 4.737-.932 6.926a.408.408 0 0 0 .182.422zm-9.532-10.843l-.503-1.593c.175-.949.364-1.898.586-2.845.172.416.344.834.504 1.256a56.814 56.814 0 0 0-.587 3.182zm-5.963 13.421c.156-1.376.035-2.739-.29-4.079.022-.406.02-.811.03-1.216.154.434.31.866.484 1.293.092.228.408.204.497.044.034.181.054.363.09.544.01.048.044.072.075.101-.028.118-.047.236-.075.354-.077.319.429.444.507.132.297-1.188.52-2.386.718-3.589.21 1.001.532 1.994.994 2.877.03.607.056 1.218.096 1.82.025.349.544.351.564 0 .016-.251.02-.499.034-.749.35.446.74.846 1.21 1.132.399.242.842-.211.636-.605-.437-.83-1.043-1.542-1.52-2.356.178-.02.344-.134.348-.358a64.59 64.59 0 0 1 .84-9.048c.168.624.334 1.246.5 1.871-.484 3.969-.416 7.955.76 11.832h-6.498zm.07-23.569c-.4 2.751-.091 5.942-.136 8.635-.06 3.563.1 7.113.728 10.616a37.776 37.776 0 0 1-.9-2.548c-.03-5.588-.756-11.183.309-16.703zm3.616 4.055l.177.671c-.7 3.567-.978 7.237-.97 10.894a14.531 14.531 0 0 1-.113-1.405.478.478 0 0 0-.27-.426c.384-3.245.648-6.508 1.176-9.734zm.486-2.622c.096.21.189.42.283.628-.17.64-.291 1.292-.431 1.941-.07-.222-.137-.446-.205-.669.114-.634.215-1.269.353-1.9zm.462 6.186a51.049 51.049 0 0 0-.68 4.504c.054-1.901.165-3.787.37-5.667.105.387.206.776.31 1.163zm.788-3.388a45.91 45.91 0 0 0-.58 2.382l-.396-1.245c.109-.813.239-1.625.4-2.435.195.433.387.865.576 1.298zm3.73-6.986c1.838-3.713-.31.957-.621 2.055-.45 1.592-.903 3.215-1.317 4.853-.152-.34-.313-.672-.485-.995.644-2.034 1.477-4.004 2.423-5.913zm-.662 16.61l-.001.016c-.175.082-.298.249-.212.451.012.026.02.054.03.079a20.7 20.7 0 0 0 .045 1.431c-.012.244-.044.491-.05.733a.32.32 0 0 0 .123.271c.03.333.056.668.085 1.001.055.623.1 1.246.13 1.871.008.146-.006.324-.014.506-.481-2.517-1.133-4.991-1.864-7.447.116-1.239.283-2.472.492-3.702.075.244.166.477.235.725.37 1.344.688 2.704 1 4.065zm5.163-12.707c-1.971 4.663-3.176 9.577-3.377 14.621l-.01.113c-.235-1.168-.462-2.37-.706-3.577.724-3.948 2.194-7.626 4.093-11.157zm2.925 10.274c-1.06 1.66-1.917 3.438-2.678 5.275.689-2.926 1.794-5.805 3.337-8.372a32.162 32.162 0 0 0-.66 3.097zm-19.714 12.147a.6.6 0 0 0 .256-.543 21.038 21.038 0 0 0-.39-2.983c.557 1.166 1.063 2.354 1.625 3.526h-1.491zm-2.871-11.366c.425.604.847 1.21 1.25 1.831 1.318 2.035 2.082 4.068 2.633 6.198a27.176 27.176 0 0 0-2.001-3.368c-.524-1.582-1.17-3.133-1.882-4.661zm30.21-8.272c-1.818 1.717-3.222 3.756-4.304 5.962.247-1.09.462-2.188.574-3.313.006-.066-.106-.079-.12-.016-.672 3.44-2.28 6.641-3.525 9.927.273-1.847.543-3.686.912-5.496a27.078 27.078 0 0 1 2.24-3.091c.185-.214-.111-.491-.311-.299-.56.534-1.068 1.1-1.546 1.682a27.364 27.364 0 0 1 1.332-4.053c.034-.04.063-.081.095-.12.114-.128.137-.256.112-.37.318-.707.675-1.405 1.082-2.091.255-.433-.382-.726-.663-.37a14.034 14.034 0 0 0-1.584 2.583c-4.01 3.249-6.505 9.28-7.443 14.409-.024-.081-.052-.16-.077-.241-.063-.246-.128-.491-.187-.743.128-4.951 1.843-8.982 4.02-13.327.177-.353-.297-.577-.522-.292-1.304 1.649-2.248 3.655-2.916 5.772.539-3.301 1.392-6.526 2.708-9.706.038-.093-.05-.142-.13-.132a78.008 78.008 0 0 1 2.653-4.433c.206-.323-.294-.68-.538-.397-3.427 3.993-5.8 9.126-6.953 14.406-.34-1.493-.731-2.96-1.222-4.342.844-3.819 1.97-7.622 3.02-11.471.146-.536-.596-.779-.884-.357-1.712 2.524-2.983 5.235-3.94 8.053-.247-.381-.51-.747-.792-1.093.327-1.25.732-2.494 1.24-3.738.098-.235-.291-.325-.387-.102a33.952 33.952 0 0 0-1.242 3.399c-.206-.229-.411-.461-.638-.67-.241-.223-.803-.016-.64.355.13.304.268.597.403.897-.094-.02-.197.014-.23.13-.102.385-.191.772-.281 1.159-.078-.112-.288-.053-.247.103l.119.446c-.776 3.577-1.05 7.22-1.467 10.846a.452.452 0 0 0-.232.418c.006.323.022.666.055 1.025a61.696 61.696 0 0 1-.505 3.304c-.431-7.129-.552-14.208-.458-21.361.004-.348-.493-.38-.602-.077-2.028 5.701-1.278 11.696-1.004 17.658-.788-2.769-1.466-5.574-2.551-8.25-.12-.296-.63-.172-.507.132 1.338 3.298 2.06 6.787 3.13 10.167.008.398.013.793.013 1.187-1.795-5.097-6.212-9.814-9.16-13.609-.67-.862-1.992-.186-1.531.854 2.576 5.83 5.174 12.255 7.175 18.324H.539v2.641h246.247v-2.641h-6.574c-.007-1.051-.062-2.224-.425-3.187.487-1.615.97-3.23 1.386-4.869.077-.303-.133-.508-.377-.561 1.22-3.848 3.277-7.187 6.088-10.422.37-.427-.225-.979-.627-.599z" mask="url(#logo-lawson-b)"/></g><path fill="#356A20" d="M80.888 27.937l2.23.778c.778.259 1.297.674 1.557 1.037.207.415.26 1.038.26 3.683v21.318c0 1.712-.053 2.49-.105 3.06-.104.779-.57 1.246-1.712 1.66l-2.23.778v1.142h26.04l.465-.416v-9.232h-1.66l-.726 1.452c-.207.363-.57 1.089-1.14 2.178-1.557 3.06-2.905 3.787-7.418 3.787-5.135 0-5.81-.57-5.81-4.668V31.567c.052-1.97.26-2.334 2.023-2.852l2.698-.778v-1.141H80.888v1.14zm48.288 17.376h-6.068c-1.09 0-1.35-.156-1.35-.623 0-.155.053-.311.105-.518l.207-.57 3.527-9.752c.26-.674.364-.882.57-.882.209 0 .312.156.416.519l.26.726 3.164 9.596.103.363c.052.207.104.363.104.467 0 .414-.363.674-1.038.674m4.357 13.953l-2.697.985v1.142h13.798V60.25l-1.297-.52c-1.09-.414-1.557-.725-1.972-1.244-.311-.415-.518-.83-1.348-3.008-.674-1.763-1.037-2.697-1.09-2.801l-7.261-20.747-.726-1.972-.726-2.074-.26-.78-.362-.31h-3.528l-.363.31-.363.884c-.933 2.23-1.193 3.216-1.66 4.357l-8.195 20.28-.985 2.335-.83 2.022c-.623 1.556-1.141 2.127-2.542 2.698l-1.4.57v1.142H121.5V60.25l-2.645-.934c-1.194-.415-1.505-.778-1.505-1.504 0-.52.156-1.09.727-2.801l1.66-4.98c.777-2.281.933-2.437 3.319-2.437h6.536c1.556 0 1.867.207 2.334 1.66l2.333 7.157c.467 1.349.467 1.4.467 1.765 0 .467-.311.777-1.193 1.089m12.706-24.95l1.505 5.083 4.097 15.198c.674 2.438.934 3.735 1.453 5.498l.26.881.414.416h4.098l.414-.416c.52-1.556.727-2.022 1.505-4.253l1.141-3.216 4.41-11.878c.206-.622.413-.881.673-.881.26 0 .467.259.674.934l4.253 13.745.623 2.126.778 2.542.26.881.466.416h3.891l.466-.416.363-1.14 1.193-3.735 1.09-3.371 4.771-14.938c.26-.727.726-2.075 1.4-4.047.416-1.14.675-2.074.986-2.904.467-1.4.881-1.763 2.18-2.334l1.296-.57v-1.142h-11.41v1.142l2.851.984c1.038.364 1.4.728 1.4 1.35 0 .519-.674 3.268-1.452 6.172l-1.193 4.409-1.192 4.253-2.438 8.506c-.208.779-.364.986-.623.986-.208 0-.363-.156-.519-.623l-.259-.881-4.409-14.887-1.038-3.578-.777-2.646c-.415-1.4-.467-1.608-.467-1.971 0-.57.207-.726 1.556-1.296l1.867-.778v-1.142h-12.915v1.142l1.764.829c1.244.571 1.504.934 2.022 2.594l.727 2.437c.26.831.414 1.453.414 1.816 0 .571-.207 1.297-.518 2.126l-2.179 5.706-3.786 10.581c-.156.415-.312.571-.519.571-.31 0-.31-.052-.674-1.297l-3.372-12.345-1.193-4.409-.88-3.526c-.52-2.127-.676-2.491-.676-2.853 0-.726.156-.83 1.764-1.504l1.763-.726v-1.142h-13.433v1.142l2.126.881c1.348.57 1.608.934 2.127 2.646l.881 2.852zm57.676 25.104c-4.41 0-7.417-3.009-8.56-8.558h-.88l-2.127 4.512c-.363.779-.415.986-.415 1.401 0 .986.259 1.66.727 2.178 1.66 1.712 5.86 3.061 9.44 3.061 7.78 0 12.915-4.565 12.915-11.464 0-2.695-.623-4.615-2.18-6.171-1.347-1.348-2.384-1.764-7.364-3.58-3.371-1.191-5.186-2.126-6.38-3.163-1.037-.934-1.66-2.335-1.66-3.787 0-3.06 2.23-5.082 5.55-5.082 3.787 0 6.692 2.593 7.988 7.158h.882l1.66-3.994.259-.623c.104-.207.104-.415.104-.622 0-2.595-3.84-4.564-8.973-4.564-7.314 0-12.345 4.2-12.345 10.32 0 2.699.882 4.773 2.542 6.121 1.504 1.194 2.8 1.816 7.469 3.423 3.319 1.142 4.77 1.973 5.86 3.217.83 1.037 1.298 2.541 1.298 4.15 0 3.733-2.231 6.067-5.81 6.067m40.82-15.352c0 10.893-2.646 15.353-9.13 15.353-6.794 0-10.165-5.29-10.165-15.872 0-9.907 2.593-14.367 8.558-14.731.208-.052.466-.052.726-.052 6.795 0 10.01 4.928 10.01 15.302m-19.916-14.264c-4.047 3.268-5.81 7.78-5.81 14.834 0 11.204 5.343 17.376 15.094 17.376 4.564 0 8.454-1.297 11.463-3.89 3.89-3.32 5.55-8.091 5.55-15.871 0-10.53-5.084-16.081-14.627-16.081-4.67 0-8.714 1.246-11.67 3.632m60.216 1.711c0-.363.053-.674.105-.934.207-.933.621-1.244 2.541-2.023l1.503-.622v-1.14h-11.928v1.14l2.957 1.141c1.918.727 2.074 1.142 2.074 3.683v17.895c0 1.193-.053 1.452-.416 1.452-.103 0-.207-.104-.415-.31l-.414-.52L270.2 36.598l-2.904-4.097-2.75-3.89-1.036-1.4-.572-.416h-7.883v1.141l2.022 1.401c1.349.933 1.868 1.763 1.815 3.32l-.05 1.815v21.681c0 1.867-.467 2.593-1.816 3.164l-2.284.933v1.142h12.035V60.25l-3.06-1.037c-1.92-.675-2.126-1.14-2.126-4.046V36.754c0-1.037.05-1.245.414-1.245.103 0 .207.052.31.155a.539.539 0 0 1 .26.312c.105.103.363.363.675.83l12.086 16.183 2.8 3.838 2.592 3.527.467.622.572.416h2.904l.416-.416v-1.089c0-1.919-.053-3.37-.053-6.276V31.515zM81.802 71.46l-.289.234v4.489h1.06l1.158-1.936c.803-1.35 1.318-1.555 3.825-1.555 1.19 0 1.318.118 1.318 1.115V87.27l-.032 1.084c-.032 1.085-.129 1.262-1.254 1.584l-1.543.44v.645h9.258v-.644l-1.575-.441c-1.093-.293-1.254-.5-1.254-1.584V73.806c0-1.027.097-1.115 1.318-1.115 2.475 0 2.99.205 3.793 1.555l1.157 1.936h1.061v-4.49l-.289-.233H81.802zm36.386.645l1.382.44c.932.293 1.061.528 1.093 1.613l.032 1.056v8.33c0 3.433-.032 3.698-.546 4.724-.515 1.026-1.833 1.613-3.6 1.613-1.929 0-3.569-.645-4.404-1.76-.675-.879-.836-1.73-.836-4.107v-9.857c0-1.085.192-1.32 1.092-1.614l1.415-.439v-.646h-8.55v.646l1.414.44c.482.147.803.352.932.586.13.235.161.587.161 2.083V84.6c0 2.641.257 3.696 1.157 4.781 1.093 1.291 3.343 1.995 6.3 1.995 2.347 0 4.275-.41 5.754-1.232.836-.469 1.543-1.144 1.994-1.936.674-1.202.835-2.405.835-5.896v-8.155c0-1.085.193-1.32 1.093-1.614l1.414-.439v-.646h-8.132v.646zm21.567 8.42c-1.35 0-1.446-.06-1.446-.91v-5.427c0-.85 0-.969.128-1.144.225-.235.772-.323 2.026-.323 2.796 0 4.339 1.467 4.339 4.107 0 2.581-1.543 3.696-5.047 3.696m8.358 6.131l-3.6-4.81c-.29-.412-.354-.5-.354-.617 0-.177.16-.322.514-.47 1.383-.556 1.929-.82 2.508-1.349.9-.763 1.414-2.14 1.414-3.609 0-1.525-.58-2.756-1.672-3.49-.964-.645-2.057-.85-4.628-.85h-10.03v.645l1.383.44c.932.293 1.06.528 1.093 1.613l.032 1.056V87.27l-.032 1.085c-.032 1.056-.161 1.29-1.093 1.584l-1.382.44v.645h8.389v-.645l-1.254-.44c-.996-.352-1.092-.528-1.092-1.584v-5.603c0-.792.096-.939.803-.939h.483c.964 0 1.093.088 1.896 1.291l4.532 6.776c.515.763 1.19 1.144 2.025 1.144h3.697v-.645c-1.125-.674-2.057-1.613-3.632-3.725m8.998-15.195v.646l1.382.439c.932.294 1.061.528 1.093 1.613l.032 1.057V87.27l-.032 1.084c-.032 1.056-.16 1.29-1.093 1.584l-1.382.44v.645h8.744v-.644l-1.512-.441c-.61-.176-.899-.351-1.028-.585-.128-.236-.16-.676-.16-2.083v-4.723c0-.704.128-.793 1.253-.793h2.121c1.254 0 1.351.058 1.961 1.232l.643 1.233h.74v-6.248h-.74l-.61 1.143c-.193.382-.322.646-.386.734-.097.146-.193.293-.322.38-.192.147-.482.207-1.157.207h-2.893a.698.698 0 0 1-.353-.088c-.225-.09-.258-.236-.258-.763v-5.28c0-1.321.064-1.41 1.48-1.467l1.735-.09h.353c2.926 0 3.28.118 4.501 2.173l.803 1.349h1.061v-4.577l-.289-.234h-15.687zm34.136 0v.646l1.381.439c.933.294 1.062.528 1.094 1.613l.031 1.057V87.27l-.031 1.084c-.032 1.056-.162 1.29-1.094 1.584l-1.381.44v.645h8.742v-.644l-1.51-.441c-.61-.176-.9-.351-1.029-.585-.129-.236-.16-.676-.16-2.083v-4.723c0-.704.129-.793 1.254-.793h2.12c1.255 0 1.352.058 1.962 1.232l.642 1.233h.74v-6.248h-.74l-.61 1.143c-.194.382-.322.646-.386.734-.096.146-.192.293-.321.38-.194.147-.482.207-1.157.207H197.9a.698.698 0 0 1-.352-.088c-.227-.09-.258-.236-.258-.763v-5.28c0-1.321.064-1.41 1.478-1.467l1.736-.09h.353c2.925 0 3.28.118 4.5 2.173l.804 1.349h1.061v-4.577l-.288-.234h-15.688zm30.567 10.472h-3.761c-.675 0-.836-.088-.836-.353 0-.087.033-.175.065-.293l.129-.323 2.185-5.514c.16-.38.225-.499.354-.499.129 0 .193.088.257.294l.16.41 1.962 5.426.064.206c.032.118.065.206.065.264 0 .235-.226.382-.644.382m7.554 7.45c-.193-.234-.322-.469-.835-1.7a60.476 60.476 0 0 0-.676-1.585l-4.5-11.733-.45-1.116-.45-1.172-.161-.44-.225-.177h-2.186l-.224.176-.226.5c-.578 1.261-.74 1.818-1.028 2.463l-5.078 11.47-.612 1.32-.514 1.145c-.386.878-.707 1.202-1.575 1.524l-.868.323v.645h7.297v-.645l-1.64-.528c-.74-.234-.932-.44-.932-.85 0-.295.097-.617.45-1.586l1.029-2.815c.482-1.29.579-1.379 2.058-1.379h4.049c.965 0 1.158.117 1.447.94l1.446 4.047c.289.763.289.792.289.997 0 .265-.192.44-.74.617l-1.67.557v.645h8.55v-.645l-.803-.294c-.675-.234-.964-.41-1.222-.704m14.882-8.858c-1.35 0-1.447-.059-1.447-.909v-5.427c0-.85 0-.969.129-1.144.225-.235.77-.323 2.025-.323 2.796 0 4.339 1.467 4.339 4.107 0 2.581-1.543 3.696-5.046 3.696m8.357 6.131l-3.6-4.81c-.29-.412-.354-.5-.354-.617 0-.177.16-.322.514-.47 1.383-.556 1.93-.82 2.508-1.349.9-.763 1.414-2.14 1.414-3.609 0-1.525-.578-2.756-1.672-3.49-.963-.645-2.056-.85-4.628-.85h-10.03v.645l1.383.44c.932.293 1.06.528 1.093 1.613l.033 1.056V87.27l-.033 1.085c-.032 1.056-.161 1.29-1.093 1.584l-1.382.44v.645h8.39v-.645l-1.254-.44c-.996-.352-1.093-.528-1.093-1.584v-5.603c0-.792.097-.939.803-.939h.483c.964 0 1.093.088 1.896 1.291l4.533 6.776c.514.763 1.19 1.144 2.025 1.144h3.697v-.645c-1.125-.674-2.058-1.613-3.633-3.725m33.364 2.61c-.097-.234-.16-.82-.225-2.698l-.32-10.56-.033-.91c0-.206-.033-.499-.033-.939V74.1c0-.969.13-1.086 1.48-1.643l.867-.352v-.646h-5.85l-.257.235c-.386 1.027-.515 1.408-.965 2.464a101.752 101.752 0 0 1-2.058 4.635l-3.246 6.834-.193.411c-.064.176-.16.235-.257.235-.16 0-.225-.059-.482-.646l-4.436-9.827-.707-1.672-.77-1.759-.29-.675-.258-.235h-5.819v.646l1.351.557c.932.381 1.093.674 1.093 1.584v.352l-.097 1.291-.739 10.414-.065 1.232c-.095 1.76-.224 1.936-1.285 2.346l-1.286.5v.644h7.458v-.645l-1.51-.499c-1.48-.499-1.608-.704-1.608-2.259v-1.085c0-.44.031-.792.031-1.055l.515-8.508c.032-.616.13-.792.354-.792.128 0 .225.117.321.353.13.292.225.5.29.704l4.178 9.386.804 1.79.836 1.907.225.557.29.146h1.253l.257-.205.193-.41.546-1.29.58-1.35.641-1.38 4.565-9.769c.13-.292.29-.439.45-.439.225 0 .29.147.29.528l.257 10.59c0 .116.032.41.032.88v.176c0 1.026-.129 1.203-.997 1.496l-1.64.528v.645h8.36v-.645l-.869-.323c-.804-.294-1.093-.528-1.222-.792"/></g></svg>