<svg id="Layer_1" data-name="Layer 1" xmlns="http://www.w3.org/2000/svg" width="49.4" height="57" viewBox="0 0 49.4 57"><title>shape-garden-tools</title><path d="M20.65,32.42H15.09V4.93C15.09,2.16,13.3,0,11,0S6.9,2.16,6.9,4.93V32.42H1.35A1.33,1.33,0,0,0,0,33.72V45.44a10.29,10.29,0,0,0,3.22,7.47A11.16,11.16,0,0,0,11,56,10.8,10.8,0,0,0,22,45.44V33.72a1.33,1.33,0,0,0-1.35-1.3M11,2.59c.58,0,1.39.89,1.39,2.34v32.6H9.63V4.93c0-1.45.81-2.34,1.4-2.34m5.86,48.48A8.45,8.45,0,0,1,11,53.4h0a8.44,8.44,0,0,1-5.87-2.33A7.78,7.78,0,0,1,2.7,45.43V35H6.9v3.81a1.32,1.32,0,0,0,1.34,1.3H13.7a1.33,1.33,0,0,0,1.35-1.3V35h4.2V45.42a7.78,7.78,0,0,1-2.43,5.64"/><path d="M48,1a1.34,1.34,0,0,0-1.38,1.32h0V13.15h-3.1V2.32a1.39,1.39,0,0,0-2.77,0V13.15h-2V2.32a1.39,1.39,0,0,0-2.77,0V13.15H34V2.32a1.39,1.39,0,0,0-2.77,0V13.15H28.17V2.32a1.39,1.39,0,0,0-2.77,0V14.47c0,3.75,3.12,7.12,7.79,8.44V52c0,2.82,1.85,5,4.2,5s4.21-2.2,4.21-5V22.91c4.67-1.33,7.8-4.71,7.8-8.44V2.32A1.36,1.36,0,0,0,48,1h0M37.39,54.36c-.6,0-1.43-.9-1.43-2.38V23.42a13.48,13.48,0,0,0,2.84,0V52c0,1.48-.84,2.38-1.44,2.38m0-33.5c-4.33,0-8.12-2.16-9-5.07h18c-.88,2.95-4.61,5.07-9,5.07"/></svg>