<svg id="Layer_1" data-name="Layer 1" xmlns="http://www.w3.org/2000/svg" width="47.91" height="42.1" viewBox="0 0 47.91 42.1"><title>shape-grass</title><path d="M42.79,39.3H39.93a13.87,13.87,0,0,1,4.26-6.61A56,56,0,0,0,42.79,39.3Zm-12,0a29.77,29.77,0,0,1,10.38-19,74,74,0,0,0-4.29,19ZM25.56,22.85a49.49,49.49,0,0,1,13.37-16C34.55,14.66,31,22.23,29,32A51.12,51.12,0,0,0,25.56,22.85Zm-6,16.45C18.42,26.6,14.65,17.16,8.93,6.78,19.19,15.28,25.79,25.7,27.67,39.3ZM11,39.3A81.67,81.67,0,0,0,6.82,20.42,30.73,30.73,0,0,1,16.74,39.3Zm-5.89,0a54,54,0,0,0-1.39-6.61A13.87,13.87,0,0,1,8,39.3Zm41.39,0h-.87a83.24,83.24,0,0,1,2.23-9.47,1.4,1.4,0,0,0-2-1.61,16.94,16.94,0,0,0-5.14,3.94,80.84,80.84,0,0,1,4.75-15.23,1.4,1.4,0,0,0-2-1.73,32.8,32.8,0,0,0-9.28,8.45c3-8.63,7.17-15.32,10.64-21.56A1.42,1.42,0,0,0,44.52.34a1.4,1.4,0,0,0-1.78,0C36.87,4.86,29.78,9.72,24,19.91,18.23,10,10.91,4.76,5.17.3A1.4,1.4,0,0,0,3.08,2.09c3.48,6.27,7.6,13,10.47,21.69a30.89,30.89,0,0,0-8.89-8.45,1.41,1.41,0,0,0-2.15,1.79,73.73,73.73,0,0,1,4.6,15A17,17,0,0,0,2,28.22a1.39,1.39,0,0,0-1.51.17,1.39,1.39,0,0,0-.47,1.44A83.24,83.24,0,0,1,2.28,39.3H1.4a1.4,1.4,0,0,0,0,2.8H46.5a1.4,1.4,0,1,0,0-2.8Z"/></svg>