<svg id="Layer_1" data-name="Layer 1" xmlns="http://www.w3.org/2000/svg" width="48" height="48" viewBox="0 0 48 48"><title>shape-question</title><path d="M24,0A24,24,0,1,1,0,24,24,24,0,0,1,24,0Zm0,3.2A20.8,20.8,0,1,0,44.8,24,20.82,20.82,0,0,0,24,3.2ZM22.41,37.4h3.2V34.2h-3.2Zm8.82-21.84a7.27,7.27,0,0,1-.35,7.14,13.36,13.36,0,0,1-2.6,2.56,8,8,0,0,0-2.09,2.19,4.38,4.38,0,0,0-.59,1.95V31H22.4V29.4a7.42,7.42,0,0,1,1.08-3.65,11.09,11.09,0,0,1,2.81-3,10.22,10.22,0,0,0,2-2,4.13,4.13,0,0,0,0-3.79,3.87,3.87,0,0,0-3.81-2,5.59,5.59,0,0,0-4.31,1.46,4.65,4.65,0,0,0-1,3.18V21.4H16V19.8a7.92,7.92,0,0,1,1.87-5.49c1.51-1.67,3.76-2.51,6.68-2.51C28.73,11.8,30.53,14.15,31.23,15.56Z"/></svg>